<svg aria-roledescription="class" role="graphics-document document" viewBox="0 0 300 404" style="max-width: 300px; background-color: white;" class="classDiagram" xmlns:xlink="http://www.w3.org/1999/xlink" xmlns="http://www.w3.org/2000/svg" width="100%" id="my-svg"><style>#my-svg{font-family:"trebuchet ms",verdana,arial,sans-serif;font-size:16px;fill:#333;}@keyframes edge-animation-frame{from{stroke-dashoffset:0;}}@keyframes dash{to{stroke-dashoffset:0;}}#my-svg .edge-animation-slow{stroke-dasharray:9,5!important;stroke-dashoffset:900;animation:dash 50s linear infinite;stroke-linecap:round;}#my-svg .edge-animation-fast{stroke-dasharray:9,5!important;stroke-dashoffset:900;animation:dash 20s linear infinite;stroke-linecap:round;}#my-svg .error-icon{fill:#552222;}#my-svg .error-text{fill:#552222;stroke:#552222;}#my-svg .edge-thickness-normal{stroke-width:1px;}#my-svg .edge-thickness-thick{stroke-width:3.5px;}#my-svg .edge-pattern-solid{stroke-dasharray:0;}#my-svg .edge-thickness-invisible{stroke-width:0;fill:none;}#my-svg .edge-pattern-dashed{stroke-dasharray:3;}#my-svg .edge-pattern-dotted{stroke-dasharray:2;}#my-svg .marker{fill:#333333;stroke:#333333;}#my-svg .marker.cross{stroke:#333333;}#my-svg svg{font-family:"trebuchet ms",verdana,arial,sans-serif;font-size:16px;}#my-svg p{margin:0;}#my-svg g.classGroup text{fill:#9370DB;stroke:none;font-family:"trebuchet ms",verdana,arial,sans-serif;font-size:10px;}#my-svg g.classGroup text .title{font-weight:bolder;}#my-svg .nodeLabel,#my-svg .edgeLabel{color:#131300;}#my-svg .edgeLabel .label rect{fill:#ECECFF;}#my-svg .label text{fill:#131300;}#my-svg .labelBkg{background:#ECECFF;}#my-svg .edgeLabel .label span{background:#ECECFF;}#my-svg .classTitle{font-weight:bolder;}#my-svg .node rect,#my-svg .node circle,#my-svg .node ellipse,#my-svg .node polygon,#my-svg .node path{fill:#ECECFF;stroke:#9370DB;stroke-width:1px;}#my-svg .divider{stroke:#9370DB;stroke-width:1;}#my-svg g.clickable{cursor:pointer;}#my-svg g.classGroup rect{fill:#ECECFF;stroke:#9370DB;}#my-svg g.classGroup line{stroke:#9370DB;stroke-width:1;}#my-svg .classLabel .box{stroke:none;stroke-width:0;fill:#ECECFF;opacity:0.5;}#my-svg .classLabel .label{fill:#9370DB;font-size:10px;}#my-svg .relation{stroke:#333333;stroke-width:1;fill:none;}#my-svg .dashed-line{stroke-dasharray:3;}#my-svg .dotted-line{stroke-dasharray:1 2;}#my-svg #compositionStart,#my-svg .composition{fill:#333333!important;stroke:#333333!important;stroke-width:1;}#my-svg #compositionEnd,#my-svg .composition{fill:#333333!important;stroke:#333333!important;stroke-width:1;}#my-svg #dependencyStart,#my-svg .dependency{fill:#333333!important;stroke:#333333!important;stroke-width:1;}#my-svg #dependencyStart,#my-svg .dependency{fill:#333333!important;stroke:#333333!important;stroke-width:1;}#my-svg #extensionStart,#my-svg .extension{fill:transparent!important;stroke:#333333!important;stroke-width:1;}#my-svg #extensionEnd,#my-svg .extension{fill:transparent!important;stroke:#333333!important;stroke-width:1;}#my-svg #aggregationStart,#my-svg .aggregation{fill:transparent!important;stroke:#333333!important;stroke-width:1;}#my-svg #aggregationEnd,#my-svg .aggregation{fill:transparent!important;stroke:#333333!important;stroke-width:1;}#my-svg #lollipopStart,#my-svg .lollipop{fill:#ECECFF!important;stroke:#333333!important;stroke-width:1;}#my-svg #lollipopEnd,#my-svg .lollipop{fill:#ECECFF!important;stroke:#333333!important;stroke-width:1;}#my-svg .edgeTerminals{font-size:11px;line-height:initial;}#my-svg .classTitleText{text-anchor:middle;font-size:18px;fill:#333;}#my-svg :root{--mermaid-font-family:"trebuchet ms",verdana,arial,sans-serif;}</style><g><defs><marker orient="auto" markerHeight="240" markerWidth="190" refY="7" refX="18" class="marker aggregation class" id="my-svg_class-aggregationStart"><path d="M 18,7 L9,13 L1,7 L9,1 Z"/></marker></defs><defs><marker orient="auto" markerHeight="28" markerWidth="20" refY="7" refX="1" class="marker aggregation class" id="my-svg_class-aggregationEnd"><path d="M 18,7 L9,13 L1,7 L9,1 Z"/></marker></defs><defs><marker orient="auto" markerHeight="240" markerWidth="190" refY="7" refX="18" class="marker extension class" id="my-svg_class-extensionStart"><path d="M 1,7 L18,13 V 1 Z"/></marker></defs><defs><marker orient="auto" markerHeight="28" markerWidth="20" refY="7" refX="1" class="marker extension class" id="my-svg_class-extensionEnd"><path d="M 1,1 V 13 L18,7 Z"/></marker></defs><defs><marker orient="auto" markerHeight="240" markerWidth="190" refY="7" refX="18" class="marker composition class" id="my-svg_class-compositionStart"><path d="M 18,7 L9,13 L1,7 L9,1 Z"/></marker></defs><defs><marker orient="auto" markerHeight="28" markerWidth="20" refY="7" refX="1" class="marker composition class" id="my-svg_class-compositionEnd"><path d="M 18,7 L9,13 L1,7 L9,1 Z"/></marker></defs><defs><marker orient="auto" markerHeight="240" markerWidth="190" refY="7" refX="6" class="marker dependency class" id="my-svg_class-dependencyStart"><path d="M 5,7 L9,13 L1,7 L9,1 Z"/></marker></defs><defs><marker orient="auto" markerHeight="28" markerWidth="20" refY="7" refX="13" class="marker dependency class" id="my-svg_class-dependencyEnd"><path d="M 18,7 L9,13 L14,7 L9,1 Z"/></marker></defs><defs><marker orient="auto" markerHeight="240" markerWidth="190" refY="7" refX="13" class="marker lollipop class" id="my-svg_class-lollipopStart"><circle r="6" cy="7" cx="7" fill="transparent" stroke="black"/></marker></defs><defs><marker orient="auto" markerHeight="240" markerWidth="190" refY="7" refX="1" class="marker lollipop class" id="my-svg_class-lollipopEnd"><circle r="6" cy="7" cx="7" fill="transparent" stroke="black"/></marker></defs><g class="root"><g class="clusters"/><g class="edgePaths"/><g class="edgeLabels"/><g class="nodes"><g transform="translate(150, 71)" id="classId-Conveyor-0" class="node default"><g class="basic label-container"><path style="" fill="#ECECFF" stroke-width="0" stroke="none" d="M-54.89453125 -63 L54.89453125 -63 L54.89453125 63 L-54.89453125 63"/><path style="" fill="none" stroke-width="1.3" stroke="#9370DB" d="M-54.89453125 -63 C-24.25513316723136 -63, 6.38426491553728 -63, 54.89453125 -63 M-54.89453125 -63 C-20.015778012389234 -63, 14.862975225221533 -63, 54.89453125 -63 M54.89453125 -63 C54.89453125 -21.465294061225677, 54.89453125 20.069411877548646, 54.89453125 63 M54.89453125 -63 C54.89453125 -16.241637269370067, 54.89453125 30.516725461259867, 54.89453125 63 M54.89453125 63 C21.05697885954566 63, -12.780573530908683 63, -54.89453125 63 M54.89453125 63 C25.38359158435615 63, -4.1273480812877 63, -54.89453125 63 M-54.89453125 63 C-54.89453125 27.834241602029984, -54.89453125 -7.331516795940033, -54.89453125 -63 M-54.89453125 63 C-54.89453125 23.602213865862375, -54.89453125 -15.79557226827525, -54.89453125 -63"/></g><g transform="translate(0, -39)" class="annotation-group text"/><g transform="translate(-35.1796875, -39)" class="label-group text"><g transform="translate(0,-12)" style="font-weight: bolder" class="label"><foreignObject height="24" width="70.359375"><div style="display: table-cell; white-space: nowrap; line-height: 1.5; max-width: 114px; text-align: center;" xmlns="http://www.w3.org/1999/xhtml"><span style="" class="nodeLabel markdown-node-label"><p>Conveyor</p></span></div></foreignObject></g></g><g transform="translate(-42.89453125, 9)" class="members-group text"/><g transform="translate(-42.89453125, 39)" class="methods-group text"><g transform="translate(0,-12)" style="" class="label"><foreignObject height="24" width="50.609375"><div style="display: table-cell; white-space: nowrap; line-height: 1.5; max-width: 101px; text-align: center;" xmlns="http://www.w3.org/1999/xhtml"><span style="" class="nodeLabel markdown-node-label"><p>+step()</p></span></div></foreignObject></g></g><g style="" class="divider"><path style="" fill="none" stroke-width="1.3" stroke="#9370DB" d="M-54.89453125 -15 C-19.919811949699884 -15, 15.054907350600232 -15, 54.89453125 -15 M-54.89453125 -15 C-22.28049839388816 -15, 10.333534462223682 -15, 54.89453125 -15"/></g><g style="" class="divider"><path style="" fill="none" stroke-width="1.3" stroke="#9370DB" d="M-54.89453125 9 C-29.507430213145668 9, -4.120329176291335 9, 54.89453125 9 M-54.89453125 9 C-27.369614812890187 9, 0.155301624219625 9, 54.89453125 9"/></g></g><g transform="translate(150, 247)" id="classId-RobotArm-1" class="node default"><g class="basic label-container"><path style="" fill="#ECECFF" stroke-width="0" stroke="none" d="M-55.8671875 -63 L55.8671875 -63 L55.8671875 63 L-55.8671875 63"/><path style="" fill="none" stroke-width="1.3" stroke="#9370DB" d="M-55.8671875 -63 C-20.201545307168168 -63, 15.464096885663665 -63, 55.8671875 -63 M-55.8671875 -63 C-15.240535679210574 -63, 25.386116141578853 -63, 55.8671875 -63 M55.8671875 -63 C55.8671875 -13.159668351283422, 55.8671875 36.680663297433156, 55.8671875 63 M55.8671875 -63 C55.8671875 -31.281647077306758, 55.8671875 0.43670584538648427, 55.8671875 63 M55.8671875 63 C15.511212586292437 63, -24.844762327415125 63, -55.8671875 63 M55.8671875 63 C28.4737188165318 63, 1.0802501330636005 63, -55.8671875 63 M-55.8671875 63 C-55.8671875 14.279188325544418, -55.8671875 -34.441623348911165, -55.8671875 -63 M-55.8671875 63 C-55.8671875 31.92196162489687, -55.8671875 0.8439232497937397, -55.8671875 -63"/></g><g transform="translate(0, -39)" class="annotation-group text"/><g transform="translate(-37.125, -39)" class="label-group text"><g transform="translate(0,-12)" style="font-weight: bolder" class="label"><foreignObject height="24" width="74.25"><div style="display: table-cell; white-space: nowrap; line-height: 1.5; max-width: 120px; text-align: center;" xmlns="http://www.w3.org/1999/xhtml"><span style="" class="nodeLabel markdown-node-label"><p>RobotArm</p></span></div></foreignObject></g></g><g transform="translate(-43.8671875, 9)" class="members-group text"/><g transform="translate(-43.8671875, 39)" class="methods-group text"><g transform="translate(0,-12)" style="" class="label"><foreignObject height="24" width="50.609375"><div style="display: table-cell; white-space: nowrap; line-height: 1.5; max-width: 101px; text-align: center;" xmlns="http://www.w3.org/1999/xhtml"><span style="" class="nodeLabel markdown-node-label"><p>+step()</p></span></div></foreignObject></g></g><g style="" class="divider"><path style="" fill="none" stroke-width="1.3" stroke="#9370DB" d="M-55.8671875 -15 C-16.186541426059087 -15, 23.494104647881827 -15, 55.8671875 -15 M-55.8671875 -15 C-23.046004783259733 -15, 9.775177933480535 -15, 55.8671875 -15"/></g><g style="" class="divider"><path style="" fill="none" stroke-width="1.3" stroke="#9370DB" d="M-55.8671875 9 C-16.889569590002687 9, 22.088048319994627 9, 55.8671875 9 M-55.8671875 9 C-27.878729099669652 9, 0.10972930066069608 9, 55.8671875 9"/></g></g><g transform="translate(150, 378)" id="note0" class="node undefined"><g class="basic label-container"><path style="fill:#fff5ad !important;stroke:#aaaa33 !important" fill="#fff5ad" stroke-width="0" stroke="none" d="M-142 -18 L142 -18 L142 18 L-142 18"/><path style="fill:#fff5ad !important;stroke:#aaaa33 !important" fill="none" stroke-width="1.3" stroke="#aaaa33" d="M-142 -18 C-29.382284526013777 -18, 83.23543094797245 -18, 142 -18 M-142 -18 C-32.72958243266075 -18, 76.5408351346785 -18, 142 -18 M142 -18 C142 -4.596897415493526, 142 8.806205169012948, 142 18 M142 -18 C142 -9.73333987077007, 142 -1.4666797415401405, 142 18 M142 18 C67.4804267075781 18, -7.039146584843792 18, -142 18 M142 18 C40.136838698512264 18, -61.72632260297547 18, -142 18 M-142 18 C-142 7.814631655219426, -142 -2.3707366895611486, -142 -18 M-142 18 C-142 5.495115715653974, -142 -7.009768568692053, -142 -18"/></g><g transform="translate(-136, -12)" style="text-align:left !important;white-space:nowrap !important" class="label"><rect/><foreignObject height="24" width="272"><div xmlns="http://www.w3.org/1999/xhtml" style="text-align: center; white-space: break-spaces; display: table; line-height: 1.5; max-width: 200px; width: 200px;"><span class="nodeLabel" style="text-align:left !important;white-space:nowrap !important"><p>Polymorphism: Both implement step()</p></span></div></foreignObject></g></g></g></g></g></svg>